<svg xmlns="http://www.w3.org/2000/svg" viewBox="0 0 200.52 121.21"><defs><style>.cls-1{fill:#fff;}.cls-2{fill:#265ca4;}.cls-3{fill:#e8325c;}</style></defs><title>Asset 1ldpi</title><g id="Layer_2" data-name="Layer 2"><g id="Layer_6" data-name="Layer 6"><ellipse class="cls-1" cx="36.12" cy="71.42" rx="34.42" ry="34.73"/><ellipse class="cls-1" cx="158.58" cy="79.99" rx="40.39" ry="40.55"/><path class="cls-2" d="M158.4,121.21h0a42.44,42.44,0,0,1-24.87-8.15,42.12,42.12,0,0,1-15.65-45.34l.14-.48.38-.33a36.61,36.61,0,0,0,11.45-18.38L130,48l.37-.33A42.24,42.24,0,0,1,158.43,37a42.43,42.43,0,0,1,24.87,8.15,42.12,42.12,0,0,1-24.9,76.07ZM121,69.1a38.72,38.72,0,1,0,12-19.22A39.94,39.94,0,0,1,121,69.1Z"/><path class="cls-2" d="M131.9,27.89A39.18,39.18,0,0,0,55.5,43.94,35.25,35.25,0,0,1,70,69.8a39.18,39.18,0,0,0,62-41.92Z"/><path class="cls-2" d="M160.79,70.61c.43,8-.87,16.05-1.73,24a2.29,2.29,0,0,0,2.28,2.28,2.33,2.33,0,0,0,2.28-2.28c.86-8,2.16-16,1.73-24-.16-2.93-4.72-2.94-4.57,0Z"/><path class="cls-2" d="M162.95,81.34c-1.61-2.8-3.64-5.58-6.66-7a14.73,14.73,0,0,0-9.26-.7c-3.57.85-6.43,3-6.91,6.83a7.42,7.42,0,0,0,3.07,7.14,14.42,14.42,0,0,0,6.65,2.19c.78.1,1.57.17,2.36.24s-.64-.14.41.08a15.57,15.57,0,0,0,2.55.29,14.07,14.07,0,0,0,6.18-1.28,37.46,37.46,0,0,0,7.54-4.84,27.15,27.15,0,0,1,3.87-2.64c.55-.29,0-.06.59-.25.16-.05,1.09-.21.49-.15.19,0,1.05.09.47,0l.35.09c.57.17-.4-.22.15.08a6.42,6.42,0,0,1,1.9,8.14c-1.77,3.91-5.5,6.68-9.28,8.45-3.56,1.67-8.18,2.41-11.82.58-2.62-1.32-4.94,2.62-2.3,3.94,5.48,2.76,11.73,1.71,17.06-.88,5-2.42,9.69-6.79,11.22-12.24,1.29-4.62-.93-11.06-5.89-12.52-4.18-1.24-8.11,2.76-11.12,5s-6,4.08-9.72,4c-1.29,0-2.61-.34-3.9-.46a15.54,15.54,0,0,1-4.13-.92c-1.33-.59-2.12-1.28-2.21-2.64-.17-2.57,1.84-3.34,4-3.85a9.67,9.67,0,0,1,5.67.45c2.21,1,3.57,3.17,4.74,5.19,1.47,2.55,5.42.25,3.94-2.3Z"/><path class="cls-2" d="M189.45,69.88c-2.46-2.75-6.92-3.27-10.35-3.72a123.39,123.39,0,0,0-15.85-.75c-5.61,0-11.22.1-16.83,0-4,0-8,0-11.47-1l-.42-.14c-.41-.14.5.24-.06,0-2.64-1.27-5,2.66-2.3,3.94,3.32,1.6,7.4,1.59,11,1.72,5.42.19,10.84.07,16.26,0s11.06,0,16.57.42a39.49,39.49,0,0,1,6.18.89,18.43,18.43,0,0,1,2.39.72c.59.22-.42-.19.13.06l.46.23c.19.1,1.1.75.57.33a4.22,4.22,0,0,1,.49.48c2,2.2,5.19-1,3.23-3.23Z"/><path class="cls-2" d="M137.25,102.93c-.2,0-.82-.1-.13,0-.61-.12.22.15-.11,0-.54-.29.18.19-.1-.07-.45-.42.13.27-.21-.28a5.45,5.45,0,0,1-.32-.62c.24.52-.07-.25-.1-.35a13.26,13.26,0,0,1-.43-1.93,33.92,33.92,0,0,1-.23-4.22c0-1.76.1-3.52.24-5.28a167.32,167.32,0,0,1,2.54-17.46c.53-2.88-3.87-4.11-4.4-1.21a173.08,173.08,0,0,0-2.8,19.95c-.3,4.49-1.15,16.27,6.06,16,2.94-.1,2.95-4.66,0-4.57Z"/><path class="cls-2" d="M142.63,61.51c-.18-2.92-.06-6.09,1.29-8.76,1.47-2.92,4.28-3.51,7.31-2.84a10.38,10.38,0,0,1,3.54,2.1,48.47,48.47,0,0,1,4.39,4.06c2.45,2.5,4.73,5.16,6.93,7.88a2.29,2.29,0,0,0,3.23,0,2.33,2.33,0,0,0,0-3.23,106.93,106.93,0,0,0-8.09-9c-3-3-6.36-5.95-10.68-6.5a10.15,10.15,0,0,0-10.28,4.73c-2.09,3.35-2.45,7.75-2.21,11.59.18,2.92,4.75,2.94,4.57,0Z"/><path class="cls-1" d="M80.68,36.41C85.2,42.75,88.3,50,91.74,56.91c1.31,2.64,5.24.33,3.94-2.3-3.44-7-6.54-14.16-11.06-20.5-1.69-2.37-5.66-.1-3.94,2.3Z"/><path class="cls-1" d="M88.25,44.07c-3.4-1.77-7.06-3-10.88-1.94A14.32,14.32,0,0,0,69,49a7.59,7.59,0,0,0,3,9.67c2.45,1.5,5.63,1,8.15,0a31.93,31.93,0,0,0,3.17-1.46c.31-.16.62-.32.93-.47-.86.41.16-.05.29-.11.49-.2,1-.41,1.42-.66a15,15,0,0,0,5.65-5.65,38.2,38.2,0,0,0,3-6.87c.18-.5.37-1,.55-1.51s.33-.86.43-1.08c.18-.42.39-.83.61-1.23.1-.19.22-.37.33-.55l.23-.34q-.23.3,0,0a4.79,4.79,0,0,1,.54-.52c-.42.36.18-.06.29-.12-.5.25.18,0,.32,0-.7.14.76.08.22,0a6.88,6.88,0,0,1,3.56,1.72c1.91,1.79,2.24,4.84,1.83,7.54-.93,6.11-5.63,13.91-12.34,14.58a2.33,2.33,0,0,0-2.28,2.28,2.29,2.29,0,0,0,2.28,2.28c10.88-1.09,18.89-14.25,16.66-24.6-1-4.79-5.89-9-10.95-8.25-4.41.65-5.78,6.14-7.07,9.63-1,2.83-2.29,5.64-4.59,7.7a14.67,14.67,0,0,1-3.54,1.94,31,31,0,0,1-3.6,1.65,5,5,0,0,1-3.78.17c-1.9-1-1.75-3.31-.58-4.76a10.56,10.56,0,0,1,5.58-3.6C81.55,45.81,84,47,85.95,48c2.61,1.36,4.92-2.58,2.3-3.94Z"/><path class="cls-1" d="M117.34,12.39c-3.55-1-7.54.9-10.68,2.37a126.94,126.94,0,0,0-13.93,8c-4.71,3-9.36,6.09-14.13,9C76.72,32.93,74.81,34,72.83,35a14.79,14.79,0,0,1-1.87.83c-.31.12-.63.22-1,.31s-1.3.24-.48.14a2.33,2.33,0,0,0-2.28,2.28,2.28,2.28,0,0,0,2.28,2.28c3.65-.43,7-2.57,10.13-4.41,4.62-2.73,9.09-5.72,13.61-8.62s9.12-5.82,13.92-8.29a32.62,32.62,0,0,1,5.57-2.38c.39-.12.79-.23,1.2-.32l.56-.11c.61-.11-.49,0,.1,0a7.26,7.26,0,0,1,1,0c.15,0,.68.07,0,0a4,4,0,0,1,.54.12c2.84.8,4-3.61,1.21-4.4Z"/><path class="cls-1" d="M123.26,47.08c-.15.1-.74.36-.12.12-.59.22.28,0-.09,0-.64,0,.28.08-.12,0-.61-.14.16.12-.2-.05a6.06,6.06,0,0,1-2.19-1.87,40.38,40.38,0,0,1-5.05-7.93A161.08,161.08,0,0,1,108.57,22a2.33,2.33,0,0,0-2.81-1.59,2.29,2.29,0,0,0-1.59,2.81,165.68,165.68,0,0,0,8.15,17.91c2.07,3.77,7.53,13.8,13.25,9.9,2.42-1.65.14-5.61-2.3-3.94Z"/><path class="cls-3" d="M37.59,57.7c-.3,9.47-2.65,18.73-4.46,28-.56,2.88,3.84,4.1,4.4,1.21,1.89-9.66,4.31-19.33,4.62-29.21.09-2.95-4.47-2.94-4.57,0Z"/><path class="cls-3" d="M38.1,70.56a20.07,20.07,0,0,0-5.82-7.89,14.8,14.8,0,0,0-7.93-2.6,14.65,14.65,0,0,0-9.19,2,8.89,8.89,0,0,0-3.45,8.88C12.6,76,17.93,78.09,22.4,79c1.72.35,3.48.82,5.21,1.07a17.83,17.83,0,0,0,8.28-.8c4.72-1.57,8.54-4.73,12.86-7.07a8,8,0,0,1,2.14-.9c.19-.06.39-.1.59-.14.63-.13-.47,0,.16,0a5,5,0,0,1,.56,0c.38,0-.33-.09.3.07.09,0,.64.26.16,0a4.57,4.57,0,0,1,.52.29c.55.34-.31-.28.21.17a6.6,6.6,0,0,1,.49.5A9.64,9.64,0,0,1,55.44,75c1.64,4.47-1.4,8.84-4.85,11.83a24.78,24.78,0,0,1-15.15,5.92,14,14,0,0,1-7.84-2c-2.51-1.56-4.8,2.4-2.3,3.94,9.95,6.16,24.58.9,31.44-7.66,3.48-4.34,4.83-9.72,2.41-14.91-2-4.26-5.91-6.64-10.5-4.88-4.4,1.69-8,4.94-12.28,6.95a15.13,15.13,0,0,1-6.88,1.51,35.61,35.61,0,0,1-5.25-1,19.24,19.24,0,0,1-5.67-1.77c-1.63-.89-2.71-2.21-2.43-4.21.78-5.67,9.77-4.83,13.33-2.48,2.25,1.48,3.58,4.26,4.68,6.61,1.24,2.67,5.18.35,3.94-2.3Z"/><path class="cls-3" d="M58.2,58.71c-3.82-5.1-9.89-6.27-15.9-6.78-5.46-.46-11.88.09-16.77-2.81-2.54-1.5-4.84,2.45-2.3,3.94C28.21,56,34.37,56,40,56.34c4.73.29,11.15.49,14.29,4.68a2.33,2.33,0,0,0,3.12.82,2.29,2.29,0,0,0,.82-3.12Z"/><path class="cls-2" d="M36.12,107.84a36.4,36.4,0,0,1-21.34-7A36.13,36.13,0,0,1,36.14,35.59a36.4,36.4,0,0,1,21.34,7,36.13,36.13,0,0,1-21.36,65.25Zm0-68.9A32.77,32.77,0,1,0,67.5,62.27,32.79,32.79,0,0,0,36.14,38.94Z"/></g></g></svg>